# xmcd
#
# Track frame offsets:
#	150
#	16549
#	32930
#	51478
#	71698
#	91449
#
# Disc length: 1432 seconds
# Revision: 0
# Processed by: cddbd v1.5.2PL0 Copyright (c) Steve Scherf et al.
# Submitted via: dBpowerAMP V12.0
#
DISCID=4a059606
DTITLE=Jeff Bates - One Day Closer
DYEAR=2011
DGENRE=Country
TTITLE0=The Rapture
TTITLE1=Living Stones
TTITLE2=One Day Closer
TTITLE3=Wayfaring Stranger
TTITLE4=Life's Railway To Heaven
TTITLE5=If You Could See Me Now
EXTD=
EXTT0=
EXTT1=
EXTT2=
EXTT3=
EXTT4=
EXTT5=
PLAYORDER=
